<?xml version="1.0" standalone="no"?>
<!DOCTYPE svg PUBLIC "-//W3C//DTD SVG 20010904//EN"
 "http://www.w3.org/TR/2001/REC-SVG-20010904/DTD/svg10.dtd">
<svg version="1.0" xmlns="http://www.w3.org/2000/svg"
 width="512.000000pt" height="512.000000pt" viewBox="0 0 512.000000 512.000000"
 preserveAspectRatio="xMidYMid meet">

<g transform="translate(0.000000,512.000000) scale(0.100000,-0.100000)"
fill="#000000" stroke="none">
<path d="M1 5013 c0 -66 4 -98 8 -83 26 85 96 155 180 181 16 4 -14 8 -81 8
l-108 1 1 -107z"/>
<path d="M2200 5111 c69 -21 132 -74 166 -141 10 -21 19 -66 22 -112 l5 -78
526 0 526 0 538 -538 537 -537 0 -658 0 -657 -85 0 -85 0 0 595 0 595 -510 0
-510 0 0 515 0 515 -470 0 -470 0 -2 -1102 -3 -1103 -22 -42 c-13 -23 -39 -58
-59 -77 -70 -68 -50 -66 -831 -66 l-703 0 0 -1025 0 -1025 1790 0 1790 0 0
510 0 510 85 0 85 0 0 -595 0 -595 300 0 300 0 -1 1093 c0 989 -2 1087 -15
1042 -15 -47 -65 -100 -772 -808 -678 -679 -764 -762 -822 -791 -36 -18 -147
-70 -247 -116 -193 -88 -212 -91 -253 -50 -12 12 -20 33 -20 51 0 19 43 126
108 266 l107 233 760 759 c722 721 763 760 814 776 135 44 277 -25 322 -157
18 -52 18 -23 19 1385 l0 1437 -1472 -1 c-810 0 -1462 -4 -1448 -8z m700
-1866 l0 -85 -85 0 -85 0 0 85 0 85 85 0 85 0 0 -85z m1198 -2 l3 -83 -516 0
-515 0 0 85 0 85 513 -2 512 -3 3 -82z m-1198 -338 l0 -85 -85 0 -85 0 0 85 0
85 85 0 85 0 0 -85z m1198 -2 l3 -83 -516 0 -515 0 0 85 0 85 513 -2 512 -3 3
-82z m-1198 -343 l0 -91 -82 3 -83 3 -3 74 c-2 41 -1 80 2 88 4 9 28 13 86 13
l80 0 0 -90z m1195 0 l0 -85 -510 0 -510 0 -3 74 c-2 41 -1 80 2 88 5 11 94
13 513 11 l508 -3 0 -85z m-1195 -345 l0 -85 -85 0 -85 0 0 85 0 85 85 0 85 0
0 -85z m1198 3 l-3 -83 -512 -3 -513 -2 0 85 0 85 515 0 516 0 -3 -82z m-1927
-197 c312 -80 550 -325 624 -642 25 -106 23 -270 -3 -381 -139 -577 -809 -841
-1303 -512 -36 24 -100 79 -141 122 -263 276 -313 676 -125 1012 55 97 205
249 302 306 105 61 202 95 320 115 75 12 240 2 326 -20z"/>
<path d="M1860 1870 c-250 -40 -462 -220 -546 -465 -25 -70 -28 -95 -28 -205
-1 -112 2 -134 28 -214 71 -217 256 -392 476 -452 87 -24 252 -24 340 -1 246
66 440 262 496 504 20 88 20 229 -1 318 -55 238 -251 438 -490 500 -76 19
-204 26 -275 15z m190 -210 c0 -27 4 -50 10 -50 29 0 122 -45 160 -77 44 -38
79 -100 80 -140 0 -22 -4 -23 -79 -23 -74 0 -81 2 -109 29 -65 66 -216 68
-292 5 -36 -31 -37 -44 -7 -71 38 -35 66 -44 161 -53 51 -5 118 -18 148 -30
188 -70 238 -273 98 -393 -38 -32 -131 -77 -160 -77 -6 0 -10 -22 -10 -50 l0
-50 -85 0 -85 0 0 50 c0 41 -3 50 -17 50 -31 0 -137 56 -171 90 -37 37 -57 71
-67 118 l-7 32 85 0 c73 0 86 -3 103 -21 31 -35 94 -59 154 -58 132 0 217 75
143 127 -42 28 -59 33 -162 43 -197 19 -315 114 -315 254 0 67 16 106 66 155
34 34 140 90 171 90 14 0 17 9 17 50 l0 50 85 0 85 0 0 -50z"/>
<path d="M199 4921 l-29 -29 0 -1222 0 -1222 29 -29 29 -29 967 0 967 0 29 29
29 29 0 1222 0 1222 -29 29 -29 29 -967 0 -967 0 -29 -29z m1931 -356 l0 -295
-935 0 -935 0 0 295 0 295 935 0 935 0 0 -295z m-1373 -401 c19 -9 46 -33 61
-52 27 -35 27 -38 27 -186 0 -142 -1 -153 -23 -184 -42 -58 -85 -72 -221 -72
-66 0 -132 5 -148 11 -42 15 -92 68 -103 109 -13 47 -13 241 1 277 14 37 57
82 94 99 46 20 267 19 312 -2z m607 -7 c25 -14 48 -39 63 -66 20 -39 23 -58
23 -166 0 -108 -3 -127 -23 -165 -38 -72 -84 -90 -230 -90 -147 0 -192 17
-232 84 -23 40 -25 52 -25 172 0 115 3 133 23 169 13 22 40 49 62 62 36 20 54
23 170 23 116 0 134 -3 169 -23z m573 12 c42 -15 92 -68 103 -109 14 -48 13
-229 -1 -271 -15 -43 -55 -88 -96 -105 -22 -9 -73 -14 -153 -14 -137 0 -180
14 -222 72 -21 30 -23 45 -26 172 -4 174 8 206 93 250 36 19 256 23 302 5z
m-1166 -612 c18 -12 44 -38 56 -56 21 -31 23 -45 23 -169 0 -120 -2 -138 -22
-174 -38 -67 -75 -82 -211 -87 -136 -4 -189 10 -231 60 -39 46 -48 93 -44 220
3 105 5 119 29 156 42 63 73 73 230 73 125 0 139 -2 170 -23z m607 -5 c58 -42
72 -85 72 -222 0 -133 -9 -169 -56 -211 -42 -38 -85 -49 -198 -49 -128 0 -165
11 -209 60 -44 48 -50 76 -45 226 3 106 6 123 27 152 47 67 69 73 231 70 133
-3 148 -5 178 -26z m579 11 c19 -9 47 -34 61 -56 25 -37 27 -51 31 -160 4
-136 -10 -189 -60 -231 -46 -39 -94 -49 -221 -45 -104 4 -118 6 -155 31 -63
41 -73 74 -73 231 0 123 2 137 23 168 12 18 38 44 56 56 31 21 45 23 168 23
105 0 143 -4 170 -17z m-1226 -584 c19 -7 47 -23 62 -38 51 -47 57 -69 57
-214 0 -123 -2 -137 -23 -168 -50 -74 -125 -97 -285 -86 -68 5 -93 11 -124 32
-62 41 -78 87 -78 225 0 159 26 213 117 246 47 16 227 18 274 3z m592 0 c51
-14 104 -63 118 -108 6 -21 9 -89 7 -162 -3 -120 -4 -127 -31 -162 -48 -63
-75 -72 -222 -72 -139 0 -166 7 -212 57 -35 38 -43 73 -43 199 0 162 24 211
117 244 46 17 212 19 266 4z m610 -3 c91 -33 117 -87 117 -246 0 -138 -16
-184 -78 -225 -31 -21 -56 -27 -124 -32 -160 -11 -235 12 -285 86 -21 31 -23
45 -23 170 0 120 3 140 21 170 26 43 56 68 94 80 47 14 235 12 278 -3z"/>
<path d="M430 4565 l0 -125 765 0 765 0 0 125 0 125 -765 0 -765 0 0 -125z"/>
<path d="M510 3925 l0 -85 85 0 85 0 0 85 0 85 -85 0 -85 0 0 -85z"/>
<path d="M1110 3925 l0 -85 85 0 85 0 0 85 0 85 -85 0 -85 0 0 -85z"/>
<path d="M1710 3925 l0 -85 85 0 85 0 0 85 0 85 -85 0 -85 0 0 -85z"/>
<path d="M510 3325 l0 -85 85 0 85 0 0 85 0 85 -85 0 -85 0 0 -85z"/>
<path d="M1110 3325 l0 -85 85 0 85 0 0 85 0 85 -85 0 -85 0 0 -85z"/>
<path d="M1710 3325 l0 -85 85 0 85 0 0 85 0 85 -85 0 -85 0 0 -85z"/>
<path d="M517 2813 c-4 -3 -7 -42 -7 -85 l0 -78 85 0 85 0 0 85 0 85 -78 0
c-43 0 -82 -3 -85 -7z"/>
<path d="M1110 2735 l0 -85 85 0 85 0 0 85 0 85 -85 0 -85 0 0 -85z"/>
<path d="M1710 2735 l0 -85 85 0 86 0 -3 83 -3 82 -82 3 -83 3 0 -86z"/>
<path d="M3500 4117 l0 -367 360 0 c198 0 360 3 360 8 0 4 -162 169 -360 367
l-360 360 0 -368z"/>
<path d="M1 1213 l-1 -1213 300 0 300 0 0 1110 0 1110 -194 0 c-121 0 -206 4
-227 12 -79 27 -135 82 -166 163 -9 23 -12 -243 -12 -1182z"/>
<path d="M4784 2258 l-45 -43 61 -60 60 -60 42 42 c53 53 58 102 14 139 -42
37 -79 32 -132 -18z"/>
<path d="M4587 2062 l-27 -28 60 -59 60 -59 30 29 30 29 -57 58 c-32 32 -60
58 -63 58 -4 0 -18 -13 -33 -28z"/>
<path d="M3889 1363 l-546 -548 -46 -103 c-26 -56 -47 -104 -47 -106 0 -3 48
18 108 45 l107 50 547 547 548 547 -57 57 c-32 32 -60 58 -63 58 -3 0 -251
-246 -551 -547z"/>
</g>
</svg>
