<?xml version="1.0" standalone="no"?>
<!DOCTYPE svg PUBLIC "-//W3C//DTD SVG 20010904//EN"
 "http://www.w3.org/TR/2001/REC-SVG-20010904/DTD/svg10.dtd">
<svg version="1.0" xmlns="http://www.w3.org/2000/svg"
 width="512.000000pt" height="512.000000pt" viewBox="0 0 512.000000 512.000000"
 preserveAspectRatio="xMidYMid meet">

<g transform="translate(0.000000,512.000000) scale(0.100000,-0.100000)"
fill="#000000" stroke="none">
<path d="M1 4083 c1 -621 5 -1020 10 -994 16 84 74 188 143 257 150 149 360
190 561 108 58 -23 61 -23 75 -6 9 10 166 197 350 416 184 219 336 402 338
407 2 5 -13 35 -33 68 -106 171 -101 395 11 559 69 100 182 178 300 206 52 13
-43 14 -848 15 l-908 1 1 -1037z"/>
<path d="M2000 5104 c124 -33 242 -118 309 -223 87 -135 103 -321 41 -466
l-18 -42 265 -199 c146 -109 272 -203 279 -207 9 -5 34 7 71 33 87 61 179 90
288 90 141 0 252 -40 341 -122 29 -27 49 -38 60 -34 25 10 484 297 490 307 3
5 -2 32 -11 61 -17 59 -20 191 -4 258 59 255 333 431 588 378 213 -44 368
-196 411 -403 5 -25 8 81 9 273 l1 312 -1587 -1 c-1411 0 -1582 -2 -1533 -15z"/>
<path d="M1797 4940 c-95 -24 -184 -97 -226 -185 -17 -35 -25 -73 -29 -130 -6
-110 20 -179 97 -256 77 -76 146 -102 256 -97 136 7 240 79 297 204 34 75 31
189 -6 270 -34 75 -93 135 -168 169 -63 29 -161 40 -221 25z"/>
<path d="M4510 4762 c-147 -49 -230 -155 -238 -307 -3 -65 0 -91 18 -137 26
-71 91 -145 162 -183 49 -28 61 -30 153 -30 86 0 107 3 150 24 67 33 131 100
163 169 39 84 38 193 -2 279 -70 153 -252 236 -406 185z"/>
<path d="M5106 4325 c-19 -124 -140 -280 -266 -342 -83 -41 -136 -52 -236 -53
-128 0 -238 41 -329 123 l-50 44 -243 -152 c-133 -83 -247 -156 -253 -162 -7
-7 -6 -26 5 -64 18 -60 21 -192 5 -259 -58 -254 -333 -431 -588 -378 -114 23
-185 61 -266 143 -131 130 -181 299 -140 473 8 35 22 76 30 91 l14 29 -274
206 c-151 113 -277 206 -280 206 -3 0 -31 -18 -63 -39 -93 -64 -152 -83 -272
-89 -95 -4 -112 -2 -180 22 -41 15 -82 29 -91 32 -11 4 -114 -111 -371 -417
l-356 -423 23 -30 c63 -85 95 -184 95 -302 0 -283 -222 -506 -505 -506 -242 0
-443 157 -499 390 -13 50 -14 -47 -14 -788 0 -465 3 -834 7 -820 23 74 78 136
151 169 42 19 65 21 345 21 177 0 315 -4 337 -10 57 -16 119 -69 150 -129 l28
-53 0 -605 0 -604 -25 -24 -24 -25 224 0 224 0 -24 25 -25 24 0 1203 c0 1151
1 1205 19 1243 10 22 36 57 57 77 70 67 77 68 431 68 313 0 319 -1 369 -24 28
-13 65 -41 82 -62 65 -78 62 -19 62 -1317 l0 -1179 -29 -29 -29 -29 228 0 228
0 -29 29 -29 29 0 922 c0 615 4 935 11 963 16 65 69 130 130 161 l53 26 315 0
c310 0 317 -1 366 -24 28 -12 65 -39 83 -60 66 -75 62 -13 62 -1053 l0 -944
-25 -24 -24 -25 224 0 224 0 -24 25 -25 24 0 1288 c0 1456 -7 1328 82 1409 73
67 84 69 433 69 l310 0 51 -27 c60 -31 108 -85 128 -143 13 -35 15 64 15 843
1 485 -1 882 -3 882 -2 0 -7 -20 -10 -45z"/>
<path d="M3125 3905 c-63 -24 -137 -86 -172 -144 -103 -172 -40 -391 138 -480
79 -39 148 -47 230 -27 154 39 248 154 257 311 5 101 -19 172 -85 245 -69 77
-128 103 -238 107 -61 2 -103 -2 -130 -12z"/>
<path d="M429 3316 c-102 -27 -181 -95 -228 -196 -21 -45 -26 -70 -26 -135 0
-71 4 -89 33 -148 36 -72 87 -123 161 -159 38 -19 62 -23 146 -23 92 0 104 2
153 30 71 38 136 112 162 183 30 79 25 195 -13 267 -49 94 -122 154 -222 180
-70 18 -104 18 -166 1z"/>
<path d="M4292 2617 l-22 -23 0 -1212 0 -1212 340 0 340 0 -2 1216 -3 1216
-24 19 c-22 18 -43 19 -315 19 l-293 0 -21 -23z"/>
<path d="M1562 2447 l-22 -23 0 -1127 0 -1127 340 0 340 0 0 1115 c0 1187 1
1161 -45 1179 -9 3 -146 6 -304 6 l-288 0 -21 -23z"/>
<path d="M2939 1947 c-39 -30 -39 -30 -39 -916 l0 -861 340 0 340 0 0 870 0
871 -25 24 -24 25 -288 0 c-211 -1 -292 -4 -304 -13z"/>
<path d="M199 1251 l-29 -29 0 -526 0 -526 340 0 340 0 0 530 0 531 -25 24
-24 25 -286 0 -287 0 -29 -29z"/>
<path d="M0 33 c0 -31 2 -33 32 -33 32 0 32 0 11 15 -13 9 -27 23 -32 33 -9
14 -10 11 -11 -15z"/>
<path d="M5088 29 l-27 -29 30 0 c26 0 29 3 29 30 0 17 -1 29 -2 29 -2 -1 -15
-14 -30 -30z"/>
</g>
</svg>
