<svg version="1.1" id="Layer_1" xmlns="http://www.w3.org/2000/svg" xmlns:xlink="http://www.w3.org/1999/xlink" x="0px" y="0px"
	 width="100%" viewBox="0 0 512 512" enable-background="new 0 0 512 512" xml:space="preserve">
<path fill="#219B8F" opacity="1.000000" stroke="none" 
	d="
M0.999998,507.000000 
	C1.000000,340.644653 1.000000,174.289307 1.256230,7.799591 
	C3.341640,5.443475 5.170820,3.221737 7.000000,1.000000 
	C101.355347,1.000000 195.710693,1.000000 290.206848,1.256069 
	C292.313080,3.255807 294.374115,4.903742 296.229736,6.757320 
	C330.765320,41.254673 365.245117,75.808022 399.834076,110.251717 
	C403.979584,114.379799 405.931549,119.266968 405.944244,124.815262 
	C406.043518,168.297577 406.060791,211.780380 405.955170,255.262665 
	C405.929047,266.016968 399.283936,271.117035 389.860229,271.040192 
	C372.535004,270.898926 355.207825,270.993256 337.881439,271.001678 
	C316.007324,271.012299 298.003021,289.029266 298.001740,310.912537 
	C297.998138,372.554474 297.965454,434.196442 298.052032,495.838257 
	C298.061340,502.467957 297.107544,508.340973 290.769806,511.969788 
	C290.679504,512.021484 290.916016,512.643921 291.000000,513.000000 
	C196.644653,513.000000 102.289314,513.000000 7.799685,512.743774 
	C5.443598,510.658386 3.221797,508.829193 0.999998,507.000000 
M151.030869,305.907074 
	C147.573898,315.337036 153.277542,323.790100 163.395279,323.966492 
	C172.151505,324.119141 180.912506,323.998199 190.000443,323.998199 
	C190.000443,328.863556 189.960037,333.005432 190.009399,337.146210 
	C190.094925,344.320190 196.541046,350.930328 203.452606,350.991455 
	C209.375580,351.043823 215.886490,344.011902 215.986023,337.370514 
	C216.050247,333.086151 215.998077,328.800018 215.998077,324.000000 
	C224.482162,324.000000 232.434723,323.850311 240.379395,324.037018 
	C250.865372,324.283386 256.562256,318.926514 256.872955,308.219910 
	C257.341522,292.075409 257.235779,275.902374 256.911957,259.750732 
	C256.687225,248.541687 249.767380,243.671936 240.406158,243.872620 
	C220.758911,244.293823 201.096344,244.000381 181.440063,244.000351 
	C179.698349,244.000351 177.956635,244.000351 176.340271,244.000351 
	C176.340271,234.225815 176.340271,225.305435 176.340271,216.000168 
	C178.474625,216.000168 180.280060,216.000183 182.085510,216.000168 
	C202.408112,215.999893 222.730759,216.027969 243.053268,215.984375 
	C250.441666,215.968536 255.446732,210.455734 256.144562,203.414337 
	C256.854553,196.250519 249.525955,189.808426 242.294189,189.958832 
	C233.689453,190.137787 225.078125,190.000931 215.997009,190.000931 
	C215.997009,184.963608 216.127441,180.499924 215.970261,176.046402 
	C215.627884,166.345352 204.969788,160.200897 196.868256,165.086258 
	C192.298737,167.841736 190.133652,172.195145 190.018997,177.497971 
	C189.930756,181.578873 190.001434,185.663208 190.001434,190.000931 
	C180.715790,190.000931 172.233170,190.012085 163.750580,189.997879 
	C154.812912,189.982925 149.749039,196.856720 149.890213,203.991043 
	C150.229584,221.141937 150.315048,238.312347 149.865051,255.458145 
	C149.645493,263.823486 155.722931,270.190002 164.713776,270.076843 
	C184.533493,269.827423 204.358521,269.999451 224.181381,269.999512 
	C226.292694,269.999512 228.404007,269.999512 230.621490,269.999512 
	C230.621490,279.633240 230.621490,288.671326 230.621490,297.999878 
	C228.432831,297.999878 226.618393,297.999908 224.803955,297.999908 
	C204.481354,297.999908 184.158585,298.047943 163.836288,297.968994 
	C158.168030,297.946960 153.988052,300.134674 151.030869,305.907074 
M349.000092,93.499893 
	C327.643677,72.141457 306.287231,50.783024 284.293274,28.786974 
	C284.293274,60.450096 284.293274,90.981247 284.293274,121.714005 
	C315.104614,121.714005 345.622162,121.714005 377.236511,121.714005 
	C367.533691,112.018974 358.516876,103.009438 349.000092,93.499893 
z"/>
<path fill="#000000" opacity="1.000000" stroke="none" 
	d="
M291.468658,513.000000 
	C290.916016,512.643921 290.679504,512.021484 290.769806,511.969788 
	C297.107544,508.340973 298.061340,502.467957 298.052032,495.838257 
	C297.965454,434.196442 297.998138,372.554474 298.001740,310.912537 
	C298.003021,289.029266 316.007324,271.012299 337.881439,271.001678 
	C355.207825,270.993256 372.535004,270.898926 389.860229,271.040192 
	C399.283936,271.117035 405.929047,266.016968 405.955170,255.262665 
	C406.060791,211.780380 406.043518,168.297577 405.944244,124.815262 
	C405.931549,119.266968 403.979584,114.379799 399.834076,110.251717 
	C365.245117,75.808022 330.765320,41.254673 296.229736,6.757320 
	C294.374115,4.903742 292.313080,3.255807 290.673828,1.256069 
	C364.938293,1.000000 438.876587,1.000000 513.000000,1.000000 
	C513.000000,101.687485 513.000000,202.375092 512.716492,303.812561 
	C509.163239,300.233429 505.500305,296.934540 499.461029,296.945221 
	C445.664124,297.040497 391.867004,296.986328 338.069946,297.015320 
	C329.539825,297.019897 324.054382,302.631531 324.009491,311.244568 
	C323.966980,319.405487 323.998718,327.566833 324.000366,335.727997 
	C324.002533,346.606140 329.432556,351.997009 340.432251,351.998199 
	C392.230652,352.003906 444.029114,351.966644 495.827393,352.043427 
	C502.428894,352.053192 508.354431,351.149200 511.969269,344.769897 
	C512.019897,344.680573 512.643738,344.916077 513.000000,345.000000 
	C513.000000,357.687561 513.000000,370.375122 512.785278,383.887299 
	C508.708984,381.428619 505.260498,377.896851 499.387909,377.913025 
	C445.447174,378.061157 391.505920,377.994232 337.564789,378.006409 
	C329.379730,378.008240 324.026764,383.411194 324.005035,391.634644 
	C323.983521,399.792389 324.499847,407.988861 323.872101,416.098053 
	C323.105957,425.995483 329.680573,433.077484 340.916931,433.052246 
	C392.693481,432.936096 444.470459,433.018433 496.247253,432.977081 
	C502.134491,432.972382 507.650665,431.842712 511.216827,426.359772 
	C511.448364,426.003815 512.389160,426.109192 513.000000,426.000000 
	C513.000000,438.687561 513.000000,451.375122 512.767883,464.870850 
	C508.715210,462.741364 505.940491,458.818481 499.941467,458.847412 
	C445.801941,459.108551 391.660187,459.108398 337.520508,458.864746 
	C330.658447,458.833893 323.240662,465.611450 323.887848,472.668488 
	C324.433258,478.615601 324.108978,484.654938 323.973236,490.648987 
	C323.791992,498.649567 323.147614,506.728546 330.583801,512.386658 
	C330.389191,512.591125 330.194611,512.795593 330.000000,513.000000 
	C317.312439,513.000000 304.624878,513.000000 291.468658,513.000000 
z"/>
<path fill="#219B8F" opacity="1.000000" stroke="none" 
	d="
M513.000000,344.531342 
	C512.643738,344.916077 512.019897,344.680573 511.969269,344.769897 
	C508.354431,351.149200 502.428894,352.053192 495.827393,352.043427 
	C444.029114,351.966644 392.230652,352.003906 340.432251,351.998199 
	C329.432556,351.997009 324.002533,346.606140 324.000366,335.727997 
	C323.998718,327.566833 323.966980,319.405487 324.009491,311.244568 
	C324.054382,302.631531 329.539825,297.019897 338.069946,297.015320 
	C391.867004,296.986328 445.664124,297.040497 499.461029,296.945221 
	C505.500305,296.934540 509.163239,300.233429 512.716492,304.281250 
	C513.000000,317.354218 513.000000,330.708466 513.000000,344.531342 
z"/>
<path fill="#219B8F" opacity="1.000000" stroke="none" 
	d="
M513.000000,425.531342 
	C512.389160,426.109192 511.448364,426.003815 511.216827,426.359772 
	C507.650665,431.842712 502.134491,432.972382 496.247253,432.977081 
	C444.470459,433.018433 392.693481,432.936096 340.916931,433.052246 
	C329.680573,433.077484 323.105957,425.995483 323.872101,416.098053 
	C324.499847,407.988861 323.983521,399.792389 324.005035,391.634644 
	C324.026764,383.411194 329.379730,378.008240 337.564789,378.006409 
	C391.505920,377.994232 445.447174,378.061157 499.387909,377.913025 
	C505.260498,377.896851 508.708984,381.428619 512.785278,384.355957 
	C513.000000,397.687561 513.000000,411.375122 513.000000,425.531342 
z"/>
<path fill="#219B8F" opacity="1.000000" stroke="none" 
	d="
M330.468689,513.000000 
	C330.194611,512.795593 330.389191,512.591125 330.583801,512.386658 
	C323.147614,506.728546 323.791992,498.649567 323.973236,490.648987 
	C324.108978,484.654938 324.433258,478.615601 323.887848,472.668488 
	C323.240662,465.611450 330.658447,458.833893 337.520508,458.864746 
	C391.660187,459.108398 445.801941,459.108551 499.941467,458.847412 
	C505.940491,458.818481 508.715210,462.741364 512.767883,465.339539 
	C513.000000,478.687561 513.000000,492.375122 512.743469,506.198883 
	C510.657959,508.556732 508.828979,510.778351 507.000000,513.000000 
	C448.312439,513.000000 389.624878,513.000000 330.468689,513.000000 
z"/>
<path fill="#000000" opacity="1.000000" stroke="none" 
	d="
M6.500528,1.000000 
	C5.170820,3.221737 3.341640,5.443475 1.256230,7.332606 
	C1.000000,5.086773 1.000000,3.173546 1.000000,1.000000 
	C2.663430,1.000000 4.332244,1.000000 6.500528,1.000000 
z"/>
<path fill="#000000" opacity="1.000000" stroke="none" 
	d="
M0.999998,507.499481 
	C3.221797,508.829193 5.443598,510.658386 7.332700,512.743774 
	C5.086776,513.000000 3.173552,513.000000 1.000000,513.000000 
	C1.000000,511.336578 1.000000,509.667755 0.999998,507.499481 
z"/>
<path fill="#000000" opacity="1.000000" stroke="none" 
	d="
M507.499481,513.000000 
	C508.828979,510.778351 510.657959,508.556732 512.743469,506.667542 
	C513.000000,508.913239 513.000000,510.826447 513.000000,513.000000 
	C511.336578,513.000000 509.667755,513.000000 507.499481,513.000000 
z"/>
<path fill="#000000" opacity="1.000000" stroke="none" 
	d="
M151.191376,305.543579 
	C153.988052,300.134674 158.168030,297.946960 163.836288,297.968994 
	C184.158585,298.047943 204.481354,297.999908 224.803955,297.999908 
	C226.618393,297.999908 228.432831,297.999878 230.621490,297.999878 
	C230.621490,288.671326 230.621490,279.633240 230.621490,269.999512 
	C228.404007,269.999512 226.292694,269.999512 224.181381,269.999512 
	C204.358521,269.999451 184.533493,269.827423 164.713776,270.076843 
	C155.722931,270.190002 149.645493,263.823486 149.865051,255.458145 
	C150.315048,238.312347 150.229584,221.141937 149.890213,203.991043 
	C149.749039,196.856720 154.812912,189.982925 163.750580,189.997879 
	C172.233170,190.012085 180.715790,190.000931 190.001434,190.000931 
	C190.001434,185.663208 189.930756,181.578873 190.018997,177.497971 
	C190.133652,172.195145 192.298737,167.841736 196.868256,165.086258 
	C204.969788,160.200897 215.627884,166.345352 215.970261,176.046402 
	C216.127441,180.499924 215.997009,184.963608 215.997009,190.000931 
	C225.078125,190.000931 233.689453,190.137787 242.294189,189.958832 
	C249.525955,189.808426 256.854553,196.250519 256.144562,203.414337 
	C255.446732,210.455734 250.441666,215.968536 243.053268,215.984375 
	C222.730759,216.027969 202.408112,215.999893 182.085510,216.000168 
	C180.280060,216.000183 178.474625,216.000168 176.340271,216.000168 
	C176.340271,225.305435 176.340271,234.225815 176.340271,244.000351 
	C177.956635,244.000351 179.698349,244.000351 181.440063,244.000351 
	C201.096344,244.000381 220.758911,244.293823 240.406158,243.872620 
	C249.767380,243.671936 256.687225,248.541687 256.911957,259.750732 
	C257.235779,275.902374 257.341522,292.075409 256.872955,308.219910 
	C256.562256,318.926514 250.865372,324.283386 240.379395,324.037018 
	C232.434723,323.850311 224.482162,324.000000 215.998077,324.000000 
	C215.998077,328.800018 216.050247,333.086151 215.986023,337.370514 
	C215.886490,344.011902 209.375580,351.043823 203.452606,350.991455 
	C196.541046,350.930328 190.094925,344.320190 190.009399,337.146210 
	C189.960037,333.005432 190.000443,328.863556 190.000443,323.998199 
	C180.912506,323.998199 172.151505,324.119141 163.395279,323.966492 
	C153.277542,323.790100 147.573898,315.337036 151.191376,305.543579 
z"/>
<path fill="#000000" opacity="1.000000" stroke="none" 
	d="
M349.250092,93.749893 
	C358.516876,103.009438 367.533691,112.018974 377.236511,121.714005 
	C345.622162,121.714005 315.104614,121.714005 284.293274,121.714005 
	C284.293274,90.981247 284.293274,60.450096 284.293274,28.786974 
	C306.287231,50.783024 327.643677,72.141457 349.250092,93.749893 
z"/>
</svg>