<svg version="1.1" id="Layer_1" xmlns="http://www.w3.org/2000/svg" xmlns:xlink="http://www.w3.org/1999/xlink" x="0px" y="0px"
	 width="100%" viewBox="0 0 512 512" enable-background="new 0 0 512 512" xml:space="preserve">
<path fill="#219B8F" opacity="1.000000" stroke="none" 
	d="
M453.000000,513.000000 
	C321.309998,513.000000 189.620026,513.000000 57.751625,512.705566 
	C56.529655,511.641907 55.569599,510.707916 54.429054,510.130188 
	C46.596958,506.162842 41.483517,499.781372 39.379635,491.474060 
	C37.656223,484.669006 37.038265,477.578552 36.019299,470.601624 
	C33.934132,456.324463 32.001808,442.024445 29.832657,427.760223 
	C27.665766,413.510925 25.225677,399.303375 23.017714,385.060089 
	C20.882755,371.287750 18.950468,357.484039 16.819851,343.711029 
	C14.615078,329.458710 12.264467,315.228943 10.004545,300.985046 
	C8.078568,288.845917 5.955109,276.731201 4.379759,264.546112 
	C3.517061,257.873230 2.156615,250.749084 3.588239,244.408127 
	C6.152558,233.050232 15.229219,228.446976 25.695913,227.784271 
	C25.123285,218.648560 23.603516,209.566040 24.219515,200.630783 
	C25.115143,187.639435 36.466370,177.029449 50.020962,177.015137 
	C90.010551,176.972870 130.000320,177.048904 169.989777,176.962753 
	C179.081512,176.943176 186.937393,179.914764 192.938065,186.560715 
	C204.444992,199.305038 215.700668,212.285172 226.720093,225.452438 
	C228.701645,227.820221 230.547012,228.008316 233.013031,228.007843 
	C290.998016,227.996536 348.982971,227.994141 406.967957,228.004013 
	C418.311646,228.005936 427.838928,234.717316 429.820740,245.177231 
	C432.322021,258.378632 434.030762,271.732452 435.982513,285.035034 
	C437.815338,297.526764 439.462372,310.045715 441.296326,322.537262 
	C443.128479,335.016724 445.152069,347.468079 446.979309,359.948242 
	C448.809601,372.449432 450.410828,384.984406 452.275116,397.480286 
	C454.765472,414.172333 457.498535,430.828247 459.964478,447.523743 
	C461.810333,460.020996 462.929382,472.643860 465.243195,485.048279 
	C467.275238,495.941986 463.889191,503.977997 455.192505,510.286926 
	C454.283813,510.946136 453.722504,512.084167 453.000000,513.000000 
z"/>
<path fill="#000000" opacity="1.000000" stroke="none" 
	d="
M453.468658,513.000000 
	C453.722504,512.084167 454.283813,510.946136 455.192505,510.286926 
	C463.889191,503.977997 467.275238,495.941986 465.243195,485.048279 
	C462.929382,472.643860 461.810333,460.020996 459.964478,447.523743 
	C457.498535,430.828247 454.765472,414.172333 452.275116,397.480286 
	C450.410828,384.984406 448.809601,372.449432 446.979309,359.948242 
	C445.152069,347.468079 443.128479,335.016724 441.296326,322.537262 
	C439.462372,310.045715 437.815338,297.526764 435.982513,285.035034 
	C434.030762,271.732452 432.322021,258.378632 429.820740,245.177231 
	C427.838928,234.717316 418.311646,228.005936 406.967957,228.004013 
	C348.982971,227.994141 290.998016,227.996536 233.013031,228.007843 
	C230.547012,228.008316 228.701645,227.820221 226.720093,225.452438 
	C215.700668,212.285172 204.444992,199.305038 192.938065,186.560715 
	C186.937393,179.914764 179.081512,176.943176 169.989777,176.962753 
	C130.000320,177.048904 90.010551,176.972870 50.020962,177.015137 
	C36.466370,177.029449 25.115143,187.639435 24.219515,200.630783 
	C23.603516,209.566040 25.123285,218.648560 25.695913,227.784271 
	C15.229219,228.446976 6.152558,233.050232 3.588239,244.408127 
	C2.156615,250.749084 3.517061,257.873230 4.379759,264.546112 
	C5.955109,276.731201 8.078568,288.845917 10.004545,300.985046 
	C12.264467,315.228943 14.615078,329.458710 16.819851,343.711029 
	C18.950468,357.484039 20.882755,371.287750 23.017714,385.060089 
	C25.225677,399.303375 27.665766,413.510925 29.832657,427.760223 
	C32.001808,442.024445 33.934132,456.324463 36.019299,470.601624 
	C37.038265,477.578552 37.656223,484.669006 39.379635,491.474060 
	C41.483517,499.781372 46.596958,506.162842 54.429054,510.130188 
	C55.569599,510.707916 56.529655,511.641907 57.286613,512.705566 
	C38.345123,513.000000 19.690245,513.000000 1.017684,513.000000 
	C1.017684,342.452911 1.017684,171.905823 1.017684,1.000000 
	C42.353535,1.000000 83.708107,1.000000 125.828964,1.286013 
	C114.476822,8.277973 111.721497,19.087833 111.856369,32.096439 
	C112.257141,70.750237 112.000008,109.410843 112.000023,148.068787 
	C112.000031,149.978119 112.000031,151.887451 112.000031,153.660431 
	C125.106300,153.660431 137.361832,153.660431 150.232361,153.660431 
	C150.232361,113.952820 150.232361,74.581985 150.232361,35.327717 
	C231.764328,35.327717 312.673065,35.327717 394.201172,35.327717 
	C394.201172,90.685989 394.201172,145.719574 394.201172,200.672394 
	C405.745422,200.672394 416.666687,200.672394 428.000366,200.672394 
	C428.000366,198.382111 428.000397,196.415283 428.000397,194.448471 
	C428.000336,137.794586 427.868500,81.140083 428.132507,24.487425 
	C428.175537,15.248570 424.921661,8.634354 417.395416,3.707316 
	C416.656250,3.223449 416.452362,1.921980 416.000000,0.999998 
	C448.312164,1.000000 480.624359,1.000000 512.942932,1.000002 
	C512.949341,171.666672 512.949341,342.333344 512.949341,513.000000 
	C493.244904,513.000000 473.591095,513.000000 453.468658,513.000000 
M453.001526,229.377762 
	C461.703033,294.238434 470.404541,359.099091 479.106079,423.959778 
	C479.633179,423.923584 480.160278,423.887421 480.687378,423.851227 
	C481.123108,422.022522 481.710266,420.215057 481.970154,418.361694 
	C483.725403,405.844086 485.313293,393.302368 487.144989,380.796265 
	C489.330475,365.875031 491.717224,350.983276 493.994568,336.075378 
	C495.604034,325.539795 497.217773,315.004547 498.753937,304.458099 
	C500.220734,294.388519 501.539337,284.297302 503.015442,274.229126 
	C504.512512,264.018127 506.282471,253.844894 507.637665,243.615982 
	C508.953491,233.684372 510.330231,223.726913 510.875671,213.736877 
	C511.404724,204.046951 503.872498,194.878952 494.285980,194.168579 
	C480.737915,193.164673 467.103302,193.320953 453.504913,193.015991 
	C452.074768,192.983917 450.639374,193.185028 449.260712,193.274429 
	C450.535553,205.267975 451.767853,216.861404 453.001526,229.377762 
M335.421906,109.999939 
	C340.089386,109.272766 345.256958,109.573624 349.317413,107.598503 
	C357.110413,103.807755 360.637787,93.522072 357.864868,84.999512 
	C355.807648,78.676712 348.945343,71.812210 339.443573,71.871666 
	C293.781036,72.157387 248.114975,72.145340 202.452042,71.894112 
	C191.552780,71.834152 182.804596,80.820610 182.700043,90.747475 
	C182.584610,101.705681 192.008591,110.167435 202.449509,110.107193 
	C246.445770,109.853302 290.444336,109.999886 335.421906,109.999939 
M256.500000,177.000061 
	C284.648346,177.000076 312.797485,177.100906 340.943909,176.867599 
	C344.314789,176.839661 348.017670,175.590240 350.961914,173.871246 
	C357.302979,170.169022 360.177185,160.807800 357.920685,153.075089 
	C355.566284,145.006744 347.732605,139.867569 340.858551,139.896469 
	C293.889893,140.093948 246.919983,139.993637 199.950485,140.005951 
	C191.177597,140.008255 184.183487,146.582520 183.395432,155.498169 
	C195.006012,158.876190 205.243423,164.551392 213.232849,173.797241 
	C215.373062,176.274017 217.764648,177.123993 221.023544,177.071686 
	C232.513123,176.887299 244.007462,177.000031 256.500000,177.000061 
z"/>
<path fill="#219B8F" opacity="1.000000" stroke="none" 
	d="
M415.531342,0.999998 
	C416.452362,1.921980 416.656250,3.223449 417.395416,3.707316 
	C424.921661,8.634354 428.175537,15.248570 428.132507,24.487425 
	C427.868500,81.140083 428.000336,137.794586 428.000397,194.448471 
	C428.000397,196.415283 428.000366,198.382111 428.000366,200.672394 
	C416.666687,200.672394 405.745422,200.672394 394.201172,200.672394 
	C394.201172,145.719574 394.201172,90.685989 394.201172,35.327717 
	C312.673065,35.327717 231.764328,35.327717 150.232361,35.327717 
	C150.232361,74.581985 150.232361,113.952820 150.232361,153.660431 
	C137.361832,153.660431 125.106300,153.660431 112.000031,153.660431 
	C112.000031,151.887451 112.000031,149.978119 112.000023,148.068787 
	C112.000008,109.410843 112.257141,70.750237 111.856369,32.096439 
	C111.721497,19.087833 114.476822,8.277973 126.297623,1.286013 
	C222.354233,1.000000 318.708466,1.000000 415.531342,0.999998 
z"/>
<path fill="#219B8F" opacity="1.000000" stroke="none" 
	d="
M453.000854,228.916290 
	C451.767853,216.861404 450.535553,205.267975 449.260712,193.274429 
	C450.639374,193.185028 452.074768,192.983917 453.504913,193.015991 
	C467.103302,193.320953 480.737915,193.164673 494.285980,194.168579 
	C503.872498,194.878952 511.404724,204.046951 510.875671,213.736877 
	C510.330231,223.726913 508.953491,233.684372 507.637665,243.615982 
	C506.282471,253.844894 504.512512,264.018127 503.015442,274.229126 
	C501.539337,284.297302 500.220734,294.388519 498.753937,304.458099 
	C497.217773,315.004547 495.604034,325.539795 493.994568,336.075378 
	C491.717224,350.983276 489.330475,365.875031 487.144989,380.796265 
	C485.313293,393.302368 483.725403,405.844086 481.970154,418.361694 
	C481.710266,420.215057 481.123108,422.022522 480.687378,423.851227 
	C480.160278,423.887421 479.633179,423.923584 479.106079,423.959778 
	C470.404541,359.099091 461.703033,294.238434 453.000854,228.916290 
z"/>
<path fill="#219B8F" opacity="1.000000" stroke="none" 
	d="
M334.931976,109.999939 
	C290.444336,109.999886 246.445770,109.853302 202.449509,110.107193 
	C192.008591,110.167435 182.584610,101.705681 182.700043,90.747475 
	C182.804596,80.820610 191.552780,71.834152 202.452042,71.894112 
	C248.114975,72.145340 293.781036,72.157387 339.443573,71.871666 
	C348.945343,71.812210 355.807648,78.676712 357.864868,84.999512 
	C360.637787,93.522072 357.110413,103.807755 349.317413,107.598503 
	C345.256958,109.573624 340.089386,109.272766 334.931976,109.999939 
z"/>
<path fill="#219B8F" opacity="1.000000" stroke="none" 
	d="
M256.000000,177.000061 
	C244.007462,177.000031 232.513123,176.887299 221.023544,177.071686 
	C217.764648,177.123993 215.373062,176.274017 213.232849,173.797241 
	C205.243423,164.551392 195.006012,158.876190 183.395432,155.498169 
	C184.183487,146.582520 191.177597,140.008255 199.950485,140.005951 
	C246.919983,139.993637 293.889893,140.093948 340.858551,139.896469 
	C347.732605,139.867569 355.566284,145.006744 357.920685,153.075089 
	C360.177185,160.807800 357.302979,170.169022 350.961914,173.871246 
	C348.017670,175.590240 344.314789,176.839661 340.943909,176.867599 
	C312.797485,177.100906 284.648346,177.000076 256.000000,177.000061 
z"/>
</svg>