<?xml version="1.0" standalone="no"?>
<!DOCTYPE svg PUBLIC "-//W3C//DTD SVG 20010904//EN"
 "http://www.w3.org/TR/2001/REC-SVG-20010904/DTD/svg10.dtd">
<svg version="1.0" xmlns="http://www.w3.org/2000/svg"
 width="512.000000pt" height="512.000000pt" viewBox="0 0 512.000000 512.000000"
 preserveAspectRatio="xMidYMid meet">

<g transform="translate(0.000000,512.000000) scale(0.100000,-0.100000)"
fill="#000000" stroke="none">
<path d="M2 3913 c1 -665 3 -1188 5 -1163 31 403 173 832 387 1173 201 321
508 624 831 820 332 201 716 329 1100 366 55 5 -375 9 -1117 10 l-1208 1 2
-1207z"/>
<path d="M2740 5113 c297 -28 513 -78 763 -175 l127 -50 38 30 c110 87 222
125 362 125 242 0 456 -152 535 -379 110 -316 -77 -657 -405 -740 -86 -22
-232 -15 -314 15 -167 59 -298 190 -357 357 -25 69 -36 218 -21 282 l10 43
-38 19 c-106 54 -399 134 -595 162 -137 20 -475 16 -610 -6 -359 -59 -637
-166 -923 -356 -345 -229 -606 -527 -783 -895 -103 -212 -168 -423 -206 -670
-24 -154 -24 -488 1 -645 31 -201 97 -425 171 -587 24 -52 30 -75 22 -80 -17
-10 -248 -123 -253 -123 -7 0 -46 84 -90 196 -80 205 -142 467 -162 684 -6 61
-10 -343 -11 -1112 l-1 -1208 1208 2 c664 1 1189 3 1167 5 -332 28 -678 123
-958 264 l-58 30 -32 -25 c-48 -36 -145 -82 -207 -97 -30 -7 -93 -13 -140 -13
-154 1 -281 55 -395 169 -222 222 -222 576 1 799 253 252 675 212 873 -84 94
-142 121 -310 75 -478 -6 -20 2 -26 77 -61 621 -286 1326 -279 1936 19 461
226 824 588 1044 1045 157 324 224 621 223 990 0 369 -65 654 -225 984 -32 68
-58 125 -57 126 2 1 46 26 98 55 52 29 109 62 127 72 l32 19 54 -108 c144
-286 237 -608 265 -913 6 -61 10 343 11 1113 l1 1207 -1207 -2 c-665 0 -1192
-3 -1173 -5z m-153 -1264 c200 -62 356 -193 443 -374 21 -44 43 -98 49 -121
10 -39 13 -41 73 -58 152 -42 287 -153 351 -287 19 -41 37 -81 40 -90 4 -11
23 -18 65 -22 33 -4 89 -17 126 -30 187 -68 323 -207 390 -397 26 -75 30 -98
29 -195 0 -91 -4 -124 -26 -191 -62 -187 -198 -326 -395 -403 l-67 -26 -1025
0 -1025 0 -75 23 c-319 101 -532 353 -572 678 -43 354 178 710 517 833 46 16
107 33 135 37 29 4 53 12 55 18 2 6 10 43 19 81 63 274 286 485 571 541 91 18
233 10 322 -17z"/>
<path d="M2293 3565 c-77 -21 -130 -51 -188 -106 -101 -95 -135 -194 -135
-390 l0 -127 -157 -4 c-127 -4 -169 -10 -217 -27 -167 -60 -285 -197 -323
-375 -53 -250 110 -505 364 -571 49 -13 197 -15 1005 -15 924 0 949 0 1001 20
102 38 175 121 203 232 36 141 -32 288 -168 363 -52 30 -55 30 -229 33 l-177
4 -4 106 c-4 122 -23 175 -79 231 -61 61 -107 76 -254 78 l-130 2 -5 128 c-5
113 -9 135 -34 185 -56 117 -157 200 -281 233 -72 18 -123 18 -192 0z"/>
<path d="M3967 4740 c-85 -22 -146 -73 -185 -159 -21 -45 -24 -64 -20 -120 8
-104 62 -185 153 -227 164 -77 356 31 380 212 24 178 -153 337 -328 294z"/>
<path d="M5107 2322 c-4 -48 -18 -149 -31 -223 -122 -659 -487 -1232 -1036
-1626 -353 -254 -800 -419 -1245 -462 -55 -5 375 -9 1118 -10 l1207 -1 0 1205
c0 663 -2 1205 -4 1205 -1 0 -6 -40 -9 -88z"/>
<path d="M875 977 c-102 -49 -161 -147 -153 -259 10 -150 119 -253 268 -252
149 1 263 116 264 264 0 153 -103 260 -259 268 -58 2 -79 -1 -120 -21z"/>
</g>
</svg>
