<?xml version="1.0" standalone="no"?>
<!DOCTYPE svg PUBLIC "-//W3C//DTD SVG 20010904//EN"
 "http://www.w3.org/TR/2001/REC-SVG-20010904/DTD/svg10.dtd">
<svg version="1.0" xmlns="http://www.w3.org/2000/svg"
 width="512.000000pt" height="512.000000pt" viewBox="0 0 512.000000 512.000000"
 preserveAspectRatio="xMidYMid meet">

<g transform="translate(0.000000,512.000000) scale(0.100000,-0.100000)"
fill="#000000" stroke="none">
<path d="M1 2838 c1 -1330 5 -2258 10 -2223 37 257 196 503 420 652 l68 46
-43 56 c-95 121 -130 228 -130 386 1 94 5 122 29 194 67 198 208 341 402 408
66 23 95 27 193 27 83 0 132 -5 175 -18 197 -59 348 -203 423 -404 33 -89 42
-266 18 -360 -22 -86 -60 -164 -112 -228 -24 -30 -44 -56 -44 -59 0 -2 19 -17
43 -31 205 -128 361 -342 423 -579 22 -87 27 -127 31 -311 3 -116 3 -232 -1
-257 -8 -54 -45 -103 -91 -123 -25 -11 51 -13 505 -14 l535 0 -41 20 c-24 12
-112 92 -211 193 -259 261 -259 253 0 515 100 102 196 191 214 198 76 33 160
4 195 -66 34 -67 20 -125 -49 -201 -19 -21 -33 -39 -30 -39 45 0 232 26 297
41 316 73 563 210 791 438 284 285 437 614 470 1016 15 184 16 191 50 224 65
65 158 63 218 -4 41 -47 46 -85 32 -244 -39 -463 -230 -879 -551 -1201 -337
-339 -733 -519 -1243 -565 l-67 -7 44 -50 c48 -52 63 -96 52 -149 -8 -43 -39
-83 -78 -102 -31 -15 47 -17 1070 -17 l1102 0 0 1428 0 1427 -21 -42 c-15 -30
-33 -48 -63 -63 -43 -20 -52 -20 -884 -18 -831 3 -841 3 -868 24 -15 11 -37
33 -48 48 -20 26 -21 40 -20 274 1 271 8 325 63 467 77 199 192 335 416 489
18 13 18 14 -17 55 -48 56 -104 164 -123 237 -19 75 -19 232 0 309 60 238 245
419 480 470 51 11 -72 14 -849 14 l-910 1 45 -29 c24 -15 117 -102 205 -192
175 -178 194 -208 179 -285 -6 -33 -35 -67 -188 -222 -100 -102 -196 -191
-214 -198 -76 -33 -160 -4 -195 66 -34 67 -18 131 50 203 20 20 30 37 24 37
-122 0 -398 -59 -536 -115 -446 -180 -794 -546 -939 -990 -53 -160 -72 -273
-90 -521 -5 -66 -34 -107 -92 -129 -57 -22 -104 -14 -150 26 -54 48 -61 86
-47 253 40 469 228 881 552 1206 338 339 732 519 1243 565 l67 7 -44 50 c-48
52 -63 96 -52 149 8 43 39 83 78 102 31 15 -47 17 -1069 17 l-1103 0 1 -2282z"/>
<path d="M4308 5105 c210 -46 395 -221 461 -438 30 -98 36 -205 17 -301 -23
-114 -59 -187 -157 -312 -6 -7 14 -26 58 -54 95 -60 237 -208 297 -308 55 -93
111 -246 124 -342 6 -43 10 251 11 853 l1 917 -437 -1 c-395 -1 -432 -2 -375
-14z"/>
<path d="M4075 4807 c-78 -26 -131 -64 -178 -127 -87 -119 -76 -300 24 -413
85 -97 238 -133 364 -87 80 30 164 114 191 191 74 215 -67 432 -289 445 -44 2
-87 -1 -112 -9z"/>
<path d="M4005 3831 c-186 -46 -334 -161 -417 -324 -46 -91 -68 -195 -75 -344
l-6 -133 658 0 658 0 -6 143 c-9 232 -57 358 -187 488 -161 161 -398 226 -625
170z"/>
<path d="M877 2080 c-98 -25 -182 -95 -225 -189 -21 -45 -26 -71 -26 -131 1
-136 60 -236 176 -297 48 -25 63 -28 153 -28 89 0 106 3 151 27 153 81 219
270 148 428 -31 69 -103 142 -169 171 -52 23 -154 32 -208 19z"/>
<path d="M792 1101 c-233 -59 -405 -227 -467 -456 -9 -35 -19 -120 -22 -203
l-6 -142 658 0 658 0 -6 132 c-7 155 -25 236 -72 333 -74 153 -207 269 -367
320 -112 36 -270 43 -376 16z"/>
<path d="M0 58 l0 -58 58 0 57 1 -37 20 c-22 11 -46 35 -57 57 l-20 37 -1 -57z"/>
</g>
</svg>
