<?xml version="1.0" standalone="no"?>
<!DOCTYPE svg PUBLIC "-//W3C//DTD SVG 20010904//EN"
 "http://www.w3.org/TR/2001/REC-SVG-20010904/DTD/svg10.dtd">
<svg version="1.0" xmlns="http://www.w3.org/2000/svg"
 width="512.000000pt" height="512.000000pt" viewBox="0 0 512.000000 512.000000"
 preserveAspectRatio="xMidYMid meet">

<g transform="translate(0.000000,512.000000) scale(0.100000,-0.100000)"
fill="#000000" stroke="none">
<path d="M0 2560 l0 -2560 240 0 239 0 -24 25 -25 24 0 2335 c0 1284 3 2342 6
2351 15 39 54 45 284 45 l220 0 0 143 c1 147 4 162 45 185 15 9 -99 11 -482
12 l-503 0 0 -2560z"/>
<path d="M4067 4497 l623 -622 0 -1655 c-1 -1285 -3 -1659 -13 -1671 -27 -35
-53 -39 -276 -39 l-221 0 0 -227 c-1 -237 -2 -246 -45 -271 -15 -9 99 -11 483
-12 l502 0 0 2560 0 2560 -838 0 -837 0 622 -623z"/>
<path d="M1110 2815 l0 -2135 1705 0 1705 0 0 1535 0 1534 -571 3 -571 3 -24
28 -24 28 0 570 0 569 -1110 0 -1110 0 0 -2135z m995 1510 l25 -24 0 -291 0
-291 -25 -24 -24 -25 -286 0 -287 0 -29 29 -29 29 0 277 c0 281 3 304 39 332
12 9 93 12 304 13 l288 0 24 -25z m-362 -837 c53 -28 64 -92 22 -133 -23 -24
-30 -25 -142 -25 -123 1 -139 5 -161 47 -19 35 -14 63 17 94 29 28 32 29 136
29 62 0 115 -5 128 -12z m2408 -17 c37 -38 39 -82 4 -116 l-24 -25 -1060 0
-1059 0 -27 32 c-32 38 -29 81 11 116 l25 22 1050 0 1051 0 29 -29z m-2385
-514 c31 -37 31 -81 -1 -112 -23 -24 -30 -25 -142 -25 -135 0 -158 9 -169 65
-7 40 13 80 49 95 12 5 71 9 130 7 105 -2 110 -3 133 -30z m2390 0 c31 -37 31
-81 -1 -112 l-24 -25 -1055 0 c-580 0 -1062 3 -1071 6 -8 4 -23 20 -31 36 -22
42 -10 85 29 109 31 19 60 19 1080 17 l1049 -3 24 -28z m-2387 -513 c28 -35
26 -77 -3 -111 -24 -28 -25 -28 -146 -28 -121 0 -122 0 -146 28 -31 37 -31 81
1 112 23 24 30 25 149 25 123 0 125 0 145 -26z m2386 1 c32 -31 32 -75 1 -112
l-24 -28 -1034 -3 c-722 -2 -1044 0 -1070 8 -66 19 -86 92 -38 140 20 20 38
20 1080 20 l1061 0 24 -25z m-2390 -510 c37 -36 34 -86 -6 -119 -29 -25 -37
-26 -141 -26 -108 0 -110 0 -139 29 -16 16 -29 39 -29 51 0 26 25 77 42 83 7
3 66 6 131 6 112 1 119 0 142 -24z m2390 0 c35 -34 33 -78 -4 -116 l-30 -29
-1055 2 c-1041 3 -1056 3 -1075 23 -35 34 -37 77 -6 113 l27 32 1059 0 1060 0
24 -25z m-2390 -510 c25 -24 32 -65 19 -100 -13 -33 -59 -45 -169 -45 -104 0
-107 1 -136 29 -17 18 -29 40 -29 56 0 16 12 38 29 56 29 29 31 29 146 29 110
0 117 -1 140 -25z m2389 -1 c42 -43 33 -104 -21 -132 -16 -9 -291 -12 -1067
-12 l-1045 0 -27 24 c-21 18 -28 32 -28 61 0 29 7 43 28 61 l27 24 1053 0
1053 0 27 -26z"/>
<path d="M1620 4010 l0 -170 170 0 170 0 0 170 0 170 -170 0 -170 0 0 -170z"/>
<path d="M3500 4375 l0 -445 447 0 448 0 -445 445 c-245 245 -446 445 -447
445 -2 0 -3 -200 -3 -445z"/>
<path d="M600 2390 l0 -2220 1705 0 1705 0 0 170 0 170 -1506 0 -1506 0 -29
29 -29 29 0 2021 0 2021 -170 0 -170 0 0 -2220z"/>
</g>
</svg>
