<?xml version="1.0" standalone="no"?>
<!DOCTYPE svg PUBLIC "-//W3C//DTD SVG 20010904//EN"
 "http://www.w3.org/TR/2001/REC-SVG-20010904/DTD/svg10.dtd">
<svg version="1.0" xmlns="http://www.w3.org/2000/svg"
 width="512.000000pt" height="512.000000pt" viewBox="0 0 512.000000 512.000000"
 preserveAspectRatio="xMidYMid meet">

<g transform="translate(0.000000,512.000000) scale(0.100000,-0.100000)"
fill="#000000" stroke="none">
<path d="M4298 5099 c-43 -22 -78 -81 -78 -129 0 -45 35 -107 73 -127 26 -15
66 -19 228 -23 l196 -5 -381 -430 c-513 -580 -717 -782 -1031 -1017 -831 -622
-1870 -951 -2880 -912 -322 12 -319 12 -352 -12 -15 -11 -39 -36 -51 -55 -45
-64 -14 -167 61 -202 68 -33 440 -46 742 -27 1193 77 2303 564 3139 1380 93
91 322 338 510 549 l341 384 5 -74 c3 -42 13 -88 23 -106 20 -38 82 -73 127
-73 51 0 107 35 131 82 20 40 21 51 17 379 -3 324 -4 339 -24 366 -11 15 -36
38 -54 51 -33 22 -37 22 -369 22 -315 -1 -338 -2 -373 -21z"/>
<path d="M4592 3808 c-12 -6 -70 -68 -129 -137 -59 -69 -202 -223 -319 -341
-116 -118 -217 -225 -223 -237 -8 -16 -11 -403 -11 -1407 l0 -1386 -150 0
-150 0 0 1150 c0 1134 0 1151 -20 1190 -23 45 -81 80 -133 80 -21 0 -55 -14
-93 -37 -226 -139 -379 -229 -484 -283 -80 -42 -128 -73 -143 -94 l-22 -31 -3
-987 -2 -988 -150 0 -150 0 0 848 c0 945 4 891 -69 939 -50 34 -93 29 -284
-32 -95 -30 -235 -71 -312 -91 -161 -42 -185 -53 -214 -104 -21 -37 -21 -45
-21 -799 l0 -761 -150 0 -150 0 0 705 c0 758 1 744 -51 792 -40 36 -82 41
-234 27 -77 -7 -226 -17 -330 -21 -173 -8 -193 -10 -221 -30 -66 -47 -64 -18
-64 -782 l0 -691 -95 0 c-76 0 -104 -4 -135 -20 -45 -23 -80 -80 -80 -130 0
-50 35 -107 80 -130 39 -20 53 -20 2480 -20 2427 0 2441 0 2480 20 45 23 80
80 80 130 0 50 -35 107 -80 130 -31 16 -59 20 -135 20 l-95 0 0 1703 c0 1638
-1 1704 -19 1737 -36 69 -129 101 -199 68z"/>
</g>
</svg>
