<?xml version="1.0" standalone="no"?>
<!DOCTYPE svg PUBLIC "-//W3C//DTD SVG 20010904//EN"
 "http://www.w3.org/TR/2001/REC-SVG-20010904/DTD/svg10.dtd">
<svg version="1.0" xmlns="http://www.w3.org/2000/svg"
 width="512.000000pt" height="512.000000pt" viewBox="0 0 512.000000 512.000000"
 preserveAspectRatio="xMidYMid meet">

<g transform="translate(0.000000,512.000000) scale(0.100000,-0.100000)"
fill="#000000" stroke="none">
<path d="M0 2560 l0 -2560 2560 0 2560 0 0 2560 0 2560 -2560 0 -2560 0 0
-2560z m2677 1830 c495 -127 719 -694 452 -1148 -46 -76 -170 -199 -249 -245
-155 -90 -372 -127 -546 -94 -299 57 -513 252 -596 542 -18 65 -23 104 -23
210 1 155 15 218 83 355 102 209 318 362 562 399 87 13 222 5 317 -19z m737
-1680 c333 -49 622 -314 707 -650 18 -71 21 -104 17 -210 -7 -170 -45 -281
-158 -457 -13 -21 -10 -26 48 -87 69 -72 78 -98 50 -153 -15 -30 -73 -56 -105
-48 -14 3 -54 33 -88 66 l-63 60 -58 -37 c-174 -112 -380 -161 -557 -134 -331
50 -603 294 -699 627 -19 64 -23 102 -23 213 1 126 3 141 33 230 104 301 351
517 657 575 86 16 150 18 239 5z m-887 -122 c-115 -132 -196 -282 -239 -438
-20 -73 -23 -108 -23 -255 0 -155 2 -179 28 -269 93 -334 345 -615 656 -732
242 -91 529 -82 779 24 39 17 74 27 77 23 12 -20 102 -52 159 -58 111 -10 233
43 291 128 l29 40 105 -105 c100 -100 106 -108 106 -147 0 -34 -6 -46 -33 -70
l-32 -29 -1869 0 -1869 0 -31 26 c-40 34 -46 70 -32 217 42 446 212 820 516
1135 232 241 517 413 830 501 172 48 305 67 488 69 l119 2 -55 -62z"/>
<path d="M3175 2495 c-192 -42 -331 -149 -416 -320 -90 -183 -90 -397 0 -580
73 -148 183 -244 339 -298 360 -124 741 81 817 440 19 87 19 209 0 296 -48
230 -228 409 -462 461 -85 19 -195 19 -278 1z"/>
</g>
</svg>
