<?xml version="1.0" standalone="no"?>
<!DOCTYPE svg PUBLIC "-//W3C//DTD SVG 20010904//EN"
 "http://www.w3.org/TR/2001/REC-SVG-20010904/DTD/svg10.dtd">
<svg version="1.0" xmlns="http://www.w3.org/2000/svg"
 width="512.000000pt" height="512.000000pt" viewBox="0 0 512.000000 512.000000"
 preserveAspectRatio="xMidYMid meet">

<g transform="translate(0.000000,512.000000) scale(0.100000,-0.100000)"
fill="#000000" stroke="none">
<path d="M0 2560 l0 -2560 1267 0 c696 0 1264 2 1262 4 -2 2 -40 14 -84 26
-44 12 -135 42 -203 66 -971 351 -1612 1116 -1814 2167 -21 110 -22 131 -25
1262 -3 830 -1 1157 7 1176 17 40 53 69 93 76 29 4 53 -3 131 -41 118 -57 213
-88 339 -111 133 -24 397 -17 542 14 308 66 632 210 890 397 44 31 91 63 105
71 21 11 -182 13 -1242 13 l-1268 0 0 -2560z"/>
<path d="M2606 5107 c12 -6 83 -53 158 -104 267 -180 548 -301 841 -364 145
-31 409 -38 542 -14 127 23 227 56 336 111 98 49 127 53 174 24 68 -41 64 42
60 -1228 -3 -1131 -4 -1149 -25 -1262 -81 -426 -227 -792 -445 -1120 -350
-528 -860 -898 -1517 -1104 l-145 -45 1268 -1 1267 0 0 2560 0 2560 -1267 0
c-1011 0 -1264 -3 -1247 -13z"/>
<path d="M2520 4824 c-119 -85 -329 -201 -490 -271 -296 -128 -551 -185 -830
-186 -179 0 -300 18 -456 68 l-104 33 0 -987 c0 -921 1 -995 19 -1117 124
-841 617 -1541 1341 -1904 176 -88 501 -210 560 -210 12 0 78 18 147 41 692
225 1197 653 1504 1274 133 271 223 567 259 855 6 54 10 443 10 1067 l0 982
-87 -30 c-267 -91 -618 -94 -948 -9 -263 68 -556 201 -798 362 -48 32 -89 58
-90 58 -1 -1 -18 -12 -37 -26z m240 -973 c120 -38 222 -111 280 -201 56 -87
63 -121 69 -315 l6 -180 176 -5 c196 -6 207 -9 235 -77 19 -44 19 -1209 1
-1263 -7 -19 -27 -44 -46 -57 l-34 -23 -891 0 c-865 0 -892 1 -923 20 -60 36
-58 13 -61 655 -2 325 0 610 3 634 5 32 16 54 40 78 l33 33 176 0 176 0 0 158
c0 110 5 176 16 217 44 173 194 299 409 345 68 15 262 4 335 -19z"/>
<path d="M2423 3622 c-83 -30 -128 -65 -157 -123 -25 -50 -26 -61 -26 -201 l0
-148 316 0 315 0 -3 164 -3 164 -31 44 c-22 30 -52 54 -99 78 -60 31 -76 35
-163 37 -75 3 -109 -1 -149 -15z"/>
<path d="M1812 2443 l3 -468 743 -3 742 -2 0 470 0 470 -745 0 -745 0 2 -467z
m835 133 c27 -31 37 -109 30 -222 -7 -121 -44 -174 -122 -174 -98 0 -139 99
-120 296 6 69 11 81 36 105 48 45 135 42 176 -5z"/>
</g>
</svg>
