<svg version="1.1" id="Layer_1" xmlns="http://www.w3.org/2000/svg" xmlns:xlink="http://www.w3.org/1999/xlink" x="0px" y="0px"
	 width="100%" viewBox="0 0 512 512" enable-background="new 0 0 512 512" xml:space="preserve">
<path fill="#000000" opacity="1.000000" stroke="none" 
	d="
M323.000000,513.000000 
	C215.359482,513.000000 108.218956,513.000000 1.039217,513.000000 
	C1.039217,342.401123 1.039217,171.802231 1.039217,1.101671 
	C171.557190,1.101671 342.114471,1.101671 512.835876,1.101671 
	C512.835876,171.666534 512.835876,342.333252 512.835876,513.000000 
	C449.802216,513.000000 386.651093,513.000000 323.000000,513.000000 
M168.500000,412.001068 
	C183.997803,412.000763 199.495789,412.042053 214.993347,411.981476 
	C222.067841,411.953796 225.251495,410.045959 226.768845,405.436035 
	C223.054337,404.960846 219.292236,404.566254 215.558945,403.986145 
	C202.811951,402.005524 192.091599,389.599762 192.009506,376.743195 
	C191.959503,368.911255 192.194321,361.070831 191.874557,353.251678 
	C191.785019,351.062317 190.706711,348.423798 189.187271,346.861481 
	C178.851120,336.233795 168.621063,325.461426 157.692642,315.461548 
	C143.100296,302.109039 144.118866,283.972534 157.552475,270.944641 
	C162.681885,265.970154 167.808182,260.992462 173.727051,255.248474 
	C168.036026,253.588470 163.321884,252.486786 158.812103,250.829132 
	C153.107391,248.732254 148.166962,249.281204 142.290588,251.498138 
	C134.295181,254.514511 125.512657,256.119995 116.948814,256.773834 
	C107.416397,257.501587 98.100090,254.964294 89.214287,251.141281 
	C86.562424,250.000366 83.375008,248.720688 80.725899,249.183029 
	C64.439171,252.025391 49.663353,258.714874 37.167610,269.485626 
	C14.923699,288.658905 4.473011,313.523071 4.049034,342.653809 
	C3.787149,360.647461 3.993705,378.648041 4.003110,396.645508 
	C4.008942,407.806274 8.244753,411.997955 19.520802,411.999023 
	C68.847198,412.003723 118.173599,412.001068 168.500000,412.001068 
M380.999908,366.466644 
	C381.108704,376.068817 376.368469,383.036041 369.515747,389.320740 
	C362.068634,396.150543 355.242249,403.657440 348.175140,410.898315 
	C348.075134,411.000763 348.363739,411.482452 348.546295,412.001068 
	C350.299316,412.001068 352.122192,412.001007 353.945038,412.001007 
	C390.922729,412.001038 427.900421,412.001099 464.878113,412.001038 
	C475.205200,412.001007 485.532562,412.045074 495.859344,411.987640 
	C505.397430,411.934601 509.922638,407.362762 509.987762,397.775635 
	C510.036407,390.613617 510.185364,383.445129 509.960754,376.289825 
	C509.405090,358.587250 509.639282,340.783295 507.713440,323.222137 
	C505.832550,306.070190 497.333893,291.279449 485.863525,278.404022 
	C473.478821,264.502197 458.041870,255.407272 440.110535,250.766968 
	C435.888214,249.674301 430.559143,248.801773 426.863556,250.410629 
	C407.681732,258.761292 388.763733,259.075348 369.568817,250.932114 
	C367.357239,249.993866 364.785950,248.826279 362.576111,249.139297 
	C350.080170,250.909271 338.761230,255.918289 327.328156,262.715302 
	C336.467957,271.795319 336.570618,282.973694 336.030731,294.338409 
	C335.880737,297.496155 336.239929,300.689301 335.941650,303.825928 
	C335.565186,307.785156 336.866302,310.595367 339.768402,313.406219 
	C351.013641,324.297699 361.981842,335.475342 373.045654,346.553925 
	C378.285522,351.800781 381.050873,358.092896 380.999908,366.466644 
M174.982651,151.844696 
	C172.560654,140.790115 168.387344,130.587784 160.618164,122.109871 
	C148.883438,109.304626 134.306305,102.823509 116.979485,102.595795 
	C106.838730,102.462532 97.004639,104.405975 88.224174,109.465408 
	C66.925323,121.738129 57.226055,140.843185 57.058311,165.027832 
	C57.003315,172.957230 57.525269,180.900253 58.026474,188.821671 
	C58.845669,201.768860 63.993149,212.927567 72.846565,222.298355 
	C86.695915,236.957031 103.554337,243.516693 123.819878,241.050781 
	C135.918350,239.578629 146.485046,234.969955 155.573120,226.914215 
	C169.930206,214.188004 175.917465,197.818466 175.940384,179.049652 
	C175.951096,170.277893 175.330734,161.505356 174.982651,151.844696 
M425.242126,109.077271 
	C416.732300,105.496521 408.161804,102.718895 398.657043,102.680496 
	C388.268524,102.638527 378.339508,104.325455 369.435547,109.374672 
	C348.043304,121.505653 338.292694,140.638763 338.064514,164.840439 
	C337.989746,172.773590 338.606934,180.716705 339.008148,188.650177 
	C339.666199,201.661743 345.022644,212.760132 353.728058,222.128204 
	C367.441254,236.885361 384.315460,243.515930 404.615906,241.056656 
	C417.278351,239.522644 428.149872,234.547729 437.568726,225.979156 
	C451.419830,213.378418 456.757202,197.288284 456.932953,179.156265 
	C457.011505,171.056656 457.118683,162.817444 455.777771,154.884140 
	C454.490540,147.268768 452.086761,139.625656 448.845337,132.608276 
	C444.093872,122.321869 435.496613,115.249374 425.242126,109.077271 
M197.987854,264.487915 
	C190.101578,272.380280 182.193344,280.250885 174.337631,288.173553 
	C169.937180,292.611511 169.880020,294.527374 174.352158,298.877533 
	C179.934402,304.307526 185.782562,309.464355 191.356934,314.902130 
	C198.627640,321.994659 205.884995,329.112396 212.856293,336.494843 
	C215.769791,339.580200 218.105606,339.297943 220.765366,336.682037 
	C224.801453,332.712524 228.709396,328.610291 232.808533,324.708099 
	C235.863602,321.799835 235.885559,319.180725 232.830734,316.286285 
	C230.277985,313.867584 227.907913,311.256073 224.749725,308.001038 
	C241.982651,308.001038 257.954926,308.001068 273.927185,308.001038 
	C283.918701,308.001038 293.910248,308.009186 303.901764,307.998077 
	C311.324432,307.989807 311.992218,307.336670 311.999023,300.190247 
	C312.003296,295.694061 312.002502,291.197876 311.999329,286.701691 
	C311.994446,279.760101 311.275299,279.008759 304.338348,279.004761 
	C279.859100,278.990753 255.379883,278.999176 230.900650,278.999115 
	C229.175232,278.999084 227.449799,278.999115 225.724380,278.999115 
	C225.482071,278.489929 225.239746,277.980743 224.997437,277.471558 
	C227.615829,275.196228 230.247589,272.936066 232.849243,270.641724 
	C236.048157,267.820709 235.773224,265.093811 232.772522,262.228058 
	C228.920212,258.548981 225.212616,254.718491 221.438843,250.957092 
	C217.517761,247.048889 215.643860,246.994217 211.580444,250.941238 
	C207.161423,255.233688 202.847565,259.634399 197.987854,264.487915 
M289.486755,380.000183 
	C294.058075,380.000183 298.629395,380.000183 303.200684,380.000183 
	C303.393066,380.410583 303.585449,380.821014 303.777802,381.231415 
	C300.792542,384.051605 297.843353,386.911285 294.810852,389.679718 
	C292.286957,391.983856 292.416016,394.044128 294.853546,396.385376 
	C299.176300,400.537445 303.421204,404.776581 307.563904,409.108154 
	C310.660889,412.346313 313.483673,411.922058 316.416534,408.991821 
	C329.254089,396.165649 342.090729,383.338562 354.960175,370.544434 
	C357.721985,367.798706 357.848785,365.300995 354.995697,362.468658 
	C341.759064,349.328186 328.575470,336.133972 315.420227,322.911896 
	C312.807678,320.286041 310.377533,320.084045 307.729828,322.763916 
	C303.750793,326.791260 299.771637,330.820374 295.709290,334.762939 
	C292.243713,338.126343 292.512543,341.225952 295.916107,344.447144 
	C298.219543,346.627136 300.337921,349.002625 303.221161,351.999664 
	C275.485535,351.999664 249.010300,352.099579 222.537170,351.909332 
	C217.660492,351.874298 215.973129,353.922729 215.995407,358.334045 
	C216.020645,363.330231 215.985687,368.326691 216.003464,373.322937 
	C216.024979,379.368835 216.612183,379.989746 222.539978,379.993866 
	C244.523727,380.009094 266.507477,380.000092 289.486755,380.000183 
z"/>
<path fill="#219B8F" opacity="1.000000" stroke="none" 
	d="
M168.000000,412.001068 
	C118.173599,412.001068 68.847198,412.003723 19.520802,411.999023 
	C8.244753,411.997955 4.008942,407.806274 4.003110,396.645508 
	C3.993705,378.648041 3.787149,360.647461 4.049034,342.653809 
	C4.473011,313.523071 14.923699,288.658905 37.167610,269.485626 
	C49.663353,258.714874 64.439171,252.025391 80.725899,249.183029 
	C83.375008,248.720688 86.562424,250.000366 89.214287,251.141281 
	C98.100090,254.964294 107.416397,257.501587 116.948814,256.773834 
	C125.512657,256.119995 134.295181,254.514511 142.290588,251.498138 
	C148.166962,249.281204 153.107391,248.732254 158.812103,250.829132 
	C163.321884,252.486786 168.036026,253.588470 173.727051,255.248474 
	C167.808182,260.992462 162.681885,265.970154 157.552475,270.944641 
	C144.118866,283.972534 143.100296,302.109039 157.692642,315.461548 
	C168.621063,325.461426 178.851120,336.233795 189.187271,346.861481 
	C190.706711,348.423798 191.785019,351.062317 191.874557,353.251678 
	C192.194321,361.070831 191.959503,368.911255 192.009506,376.743195 
	C192.091599,389.599762 202.811951,402.005524 215.558945,403.986145 
	C219.292236,404.566254 223.054337,404.960846 226.768845,405.436035 
	C225.251495,410.045959 222.067841,411.953796 214.993347,411.981476 
	C199.495789,412.042053 183.997803,412.000763 168.000000,412.001068 
z"/>
<path fill="#219B8F" opacity="1.000000" stroke="none" 
	d="
M380.999939,366.012787 
	C381.050873,358.092896 378.285522,351.800781 373.045654,346.553925 
	C361.981842,335.475342 351.013641,324.297699 339.768402,313.406219 
	C336.866302,310.595367 335.565186,307.785156 335.941650,303.825928 
	C336.239929,300.689301 335.880737,297.496155 336.030731,294.338409 
	C336.570618,282.973694 336.467957,271.795319 327.328156,262.715302 
	C338.761230,255.918289 350.080170,250.909271 362.576111,249.139297 
	C364.785950,248.826279 367.357239,249.993866 369.568817,250.932114 
	C388.763733,259.075348 407.681732,258.761292 426.863556,250.410629 
	C430.559143,248.801773 435.888214,249.674301 440.110535,250.766968 
	C458.041870,255.407272 473.478821,264.502197 485.863525,278.404022 
	C497.333893,291.279449 505.832550,306.070190 507.713440,323.222137 
	C509.639282,340.783295 509.405090,358.587250 509.960754,376.289825 
	C510.185364,383.445129 510.036407,390.613617 509.987762,397.775635 
	C509.922638,407.362762 505.397430,411.934601 495.859344,411.987640 
	C485.532562,412.045074 475.205200,412.001007 464.878113,412.001038 
	C427.900421,412.001099 390.922729,412.001038 353.945038,412.001007 
	C352.122192,412.001007 350.299316,412.001068 348.546295,412.001068 
	C348.363739,411.482452 348.075134,411.000763 348.175140,410.898315 
	C355.242249,403.657440 362.068634,396.150543 369.515747,389.320740 
	C376.368469,383.036041 381.108704,376.068817 380.999939,366.012787 
z"/>
<path fill="#219B8F" opacity="1.000000" stroke="none" 
	d="
M174.989517,152.288940 
	C175.330734,161.505356 175.951096,170.277893 175.940384,179.049652 
	C175.917465,197.818466 169.930206,214.188004 155.573120,226.914215 
	C146.485046,234.969955 135.918350,239.578629 123.819878,241.050781 
	C103.554337,243.516693 86.695915,236.957031 72.846565,222.298355 
	C63.993149,212.927567 58.845669,201.768860 58.026474,188.821671 
	C57.525269,180.900253 57.003315,172.957230 57.058311,165.027832 
	C57.226055,140.843185 66.925323,121.738129 88.224174,109.465408 
	C97.004639,104.405975 106.838730,102.462532 116.979485,102.595795 
	C134.306305,102.823509 148.883438,109.304626 160.618164,122.109871 
	C168.387344,130.587784 172.560654,140.790115 174.989517,152.288940 
z"/>
<path fill="#219B8F" opacity="1.000000" stroke="none" 
	d="
M425.571350,109.263489 
	C435.496613,115.249374 444.093872,122.321869 448.845337,132.608276 
	C452.086761,139.625656 454.490540,147.268768 455.777771,154.884140 
	C457.118683,162.817444 457.011505,171.056656 456.932953,179.156265 
	C456.757202,197.288284 451.419830,213.378418 437.568726,225.979156 
	C428.149872,234.547729 417.278351,239.522644 404.615906,241.056656 
	C384.315460,243.515930 367.441254,236.885361 353.728058,222.128204 
	C345.022644,212.760132 339.666199,201.661743 339.008148,188.650177 
	C338.606934,180.716705 337.989746,172.773590 338.064514,164.840439 
	C338.292694,140.638763 348.043304,121.505653 369.435547,109.374672 
	C378.339508,104.325455 388.268524,102.638527 398.657043,102.680496 
	C408.161804,102.718895 416.732300,105.496521 425.571350,109.263489 
z"/>
<path fill="#219B8F" opacity="1.000000" stroke="none" 
	d="
M198.237854,264.237915 
	C202.847565,259.634399 207.161423,255.233688 211.580444,250.941238 
	C215.643860,246.994217 217.517761,247.048889 221.438843,250.957092 
	C225.212616,254.718491 228.920212,258.548981 232.772522,262.228058 
	C235.773224,265.093811 236.048157,267.820709 232.849243,270.641724 
	C230.247589,272.936066 227.615829,275.196228 224.997437,277.471558 
	C225.239746,277.980743 225.482071,278.489929 225.724380,278.999115 
	C227.449799,278.999115 229.175232,278.999084 230.900650,278.999115 
	C255.379883,278.999176 279.859100,278.990753 304.338348,279.004761 
	C311.275299,279.008759 311.994446,279.760101 311.999329,286.701691 
	C312.002502,291.197876 312.003296,295.694061 311.999023,300.190247 
	C311.992218,307.336670 311.324432,307.989807 303.901764,307.998077 
	C293.910248,308.009186 283.918701,308.001038 273.927185,308.001038 
	C257.954926,308.001068 241.982651,308.001038 224.749725,308.001038 
	C227.907913,311.256073 230.277985,313.867584 232.830734,316.286285 
	C235.885559,319.180725 235.863602,321.799835 232.808533,324.708099 
	C228.709396,328.610291 224.801453,332.712524 220.765366,336.682037 
	C218.105606,339.297943 215.769791,339.580200 212.856293,336.494843 
	C205.884995,329.112396 198.627640,321.994659 191.356934,314.902130 
	C185.782562,309.464355 179.934402,304.307526 174.352158,298.877533 
	C169.880020,294.527374 169.937180,292.611511 174.337631,288.173553 
	C182.193344,280.250885 190.101578,272.380280 198.237854,264.237915 
z"/>
<path fill="#219B8F" opacity="1.000000" stroke="none" 
	d="
M288.988983,380.000183 
	C266.507477,380.000092 244.523727,380.009094 222.539978,379.993866 
	C216.612183,379.989746 216.024979,379.368835 216.003464,373.322937 
	C215.985687,368.326691 216.020645,363.330231 215.995407,358.334045 
	C215.973129,353.922729 217.660492,351.874298 222.537170,351.909332 
	C249.010300,352.099579 275.485535,351.999664 303.221161,351.999664 
	C300.337921,349.002625 298.219543,346.627136 295.916107,344.447144 
	C292.512543,341.225952 292.243713,338.126343 295.709290,334.762939 
	C299.771637,330.820374 303.750793,326.791260 307.729828,322.763916 
	C310.377533,320.084045 312.807678,320.286041 315.420227,322.911896 
	C328.575470,336.133972 341.759064,349.328186 354.995697,362.468658 
	C357.848785,365.300995 357.721985,367.798706 354.960175,370.544434 
	C342.090729,383.338562 329.254089,396.165649 316.416534,408.991821 
	C313.483673,411.922058 310.660889,412.346313 307.563904,409.108154 
	C303.421204,404.776581 299.176300,400.537445 294.853546,396.385376 
	C292.416016,394.044128 292.286957,391.983856 294.810852,389.679718 
	C297.843353,386.911285 300.792542,384.051605 303.777802,381.231415 
	C303.585449,380.821014 303.393066,380.410583 303.200684,380.000183 
	C298.629395,380.000183 294.058075,380.000183 288.988983,380.000183 
z"/>
</svg>