<?xml version="1.0" standalone="no"?>
<!DOCTYPE svg PUBLIC "-//W3C//DTD SVG 20010904//EN"
 "http://www.w3.org/TR/2001/REC-SVG-20010904/DTD/svg10.dtd">
<svg version="1.0" xmlns="http://www.w3.org/2000/svg"
 width="512.000000pt" height="512.000000pt" viewBox="0 0 512.000000 512.000000"
 preserveAspectRatio="xMidYMid meet">

<g transform="translate(0.000000,512.000000) scale(0.100000,-0.100000)"
fill="#000000" stroke="none">
<path d="M1 3838 c1 -706 5 -1245 9 -1198 41 463 394 814 875 866 l70 8 -64 8
c-156 18 -284 81 -398 195 -121 122 -183 275 -183 451 0 184 57 319 190 452
131 131 272 191 450 191 178 0 333 -63 455 -186 122 -123 183 -255 192 -421
15 -247 -113 -479 -330 -602 -69 -40 -135 -62 -232 -77 l-80 -13 96 -1 c115
-1 237 -21 338 -55 40 -14 292 -134 559 -266 266 -132 486 -239 487 -238 2 2
77 152 168 334 185 369 192 379 279 379 77 0 141 -62 141 -137 0 -36 -32 -107
-188 -418 l-188 -375 -1 -120 c-1 -107 -4 -126 -27 -175 -40 -85 -108 -154
-197 -197 -72 -36 -81 -38 -173 -38 l-97 0 -277 137 c-151 76 -280 138 -285
138 -6 0 -10 -315 -10 -857 0 -957 4 -902 -69 -950 l-34 -23 -521 0 c-502 0
-522 1 -554 20 -18 11 -41 34 -52 52 -19 32 -20 52 -20 473 l0 440 -56 24
c-99 43 -201 154 -239 261 -9 25 -20 72 -24 105 -5 33 -9 -405 -10 -982 l-1
-1043 2560 0 2560 0 -1 1443 c-1 793 -5 1416 -9 1384 -14 -110 -74 -224 -154
-293 -63 -55 -169 -102 -256 -114 -41 -5 -240 -10 -442 -10 -203 0 -368 -2
-368 -4 0 -2 130 -360 290 -795 163 -443 290 -804 290 -823 0 -68 -70 -138
-138 -138 -44 0 -99 27 -120 57 -8 14 -154 401 -323 861 l-307 837 -60 3 c-42
2 -61 -1 -64 -10 -3 -7 -142 -388 -308 -846 -256 -702 -308 -837 -333 -862
-83 -81 -224 -29 -234 87 -4 43 24 126 281 833 157 432 286 788 286 792 0 5
-47 8 -105 8 l-105 0 6 28 c3 15 8 33 10 40 2 8 4 52 5 99 l1 86 179 361 c151
305 181 371 189 429 38 251 -130 481 -380 520 -140 21 -273 -21 -381 -120 -54
-50 -69 -75 -165 -267 -59 -116 -108 -212 -109 -214 -1 -1 -84 36 -184 84
l-181 87 0 562 c0 360 4 583 11 621 37 203 198 356 404 383 33 5 -481 9 -1142
10 l-1203 1 1 -1282z"/>
<path d="M4703 5110 c214 -27 380 -193 407 -407 5 -38 8 26 9 180 l1 237 -237
-1 c-154 -1 -218 -4 -180 -9z"/>
<path d="M2642 4460 c-47 -29 -72 -76 -72 -135 0 -65 28 -110 83 -135 40 -19
75 -20 871 -20 812 0 831 0 870 20 57 28 79 63 84 130 3 45 0 61 -20 90 -50
74 6 70 -938 70 -826 0 -846 -1 -878 -20z"/>
<path d="M3578 3899 c-102 -54 -101 -216 2 -269 37 -19 58 -20 412 -20 344 0
376 1 408 19 57 30 75 63 75 136 0 73 -18 106 -75 136 -32 18 -63 19 -410 19
-354 -1 -377 -2 -412 -21z"/>
<path d="M3595 3346 c-37 -16 -82 -68 -91 -102 -10 -38 2 -104 23 -133 44 -60
52 -61 463 -61 419 0 421 0 468 70 20 29 23 45 20 90 -5 67 -27 102 -84 130
-38 19 -59 20 -405 20 -280 -1 -371 -4 -394 -14z"/>
</g>
</svg>
